<?xml version="1.0" ?><svg xmlns="http://www.w3.org/2000/svg" xmlns:xlink="http://www.w3.org/1999/xlink" version="1.1" viewBox="0 0 512 512" style="enable-background:new 0 0 512 512;" xml:space="preserve"><g id="_x31_1_x2C__Hand_x2C__sportteam_x2C__together_x2C__unity_x2C__united_x2C__union"><g><g><path style="fill:#283954;" d="M502.208,163.588l-15.368-25.612c-3.769-6.27-5.761-13.464-5.761-20.803V11.625     C481.08,5.757,476.322,1,470.455,1H320.833c-5.867,0-10.625,4.757-10.625,10.625s4.758,10.625,10.625,10.625H459.83v94.924     c0,11.196,3.042,22.175,8.793,31.743l15.363,25.603c3.772,6.289,5.765,13.49,5.765,20.823v29.474     c0,5.868,4.757,10.625,10.625,10.625S511,230.684,511,224.816v-29.474C511,184.16,507.96,173.181,502.208,163.588z"/><path style="fill:#283954;" d="M191.167,489.75H52.17v-94.923c0-11.196-3.042-22.175-8.793-31.742L28.015,337.48     c-3.772-6.289-5.765-13.49-5.765-20.823V292.21c0-5.868-4.757-10.625-10.625-10.625C5.757,281.585,1,286.342,1,292.21v24.448     c0,11.182,3.04,22.161,8.792,31.753l15.368,25.613c3.769,6.27,5.761,13.464,5.761,20.803v105.548     c0,5.868,4.757,10.625,10.625,10.625h149.622c5.868,0,10.625-4.757,10.625-10.625S197.034,489.75,191.167,489.75z"/><path style="fill:#DC5461;" d="M400.628,141.941h-0.807c6.324,19.681-8.435,39.897-29.113,39.897h-69.169v39.249     c0,5.876-4.76,10.625-10.625,10.625h-59.202v-10.625c0-5.865-4.749-10.625-10.625-10.625h59.202v-28.624h-9.329     c-5.865,0-10.625-4.749-10.625-10.625c0-5.865,4.76-10.625,10.625-10.625h99.747c5.143,0,9.318-4.176,9.318-9.318     c0-5.142-4.176-9.329-9.318-9.329h-79.794c-5.875,0-10.625-4.749-10.625-10.625c0-5.865,4.75-10.625,10.625-10.625h109.714     c5.142,0,9.329-4.175,9.329-9.318c0-5.142-4.186-9.329-9.329-9.329H290.914c-5.875,0-10.625-4.76-10.625-10.625     c0-5.865,4.75-10.625,10.625-10.625h79.794c5.143,0,9.318-4.176,9.318-9.318c0-5.143-4.176-9.329-9.318-9.329h-79.794     c-5.875,0-10.625-4.76-10.625-10.625c0-5.865,4.75-10.625,10.625-10.625h39.897c5.143,0,9.318-4.186,9.318-9.318     c0-5.143-4.176-9.329-9.318-9.329H195.342c-7.331,0-14.535,1.997-20.814,5.769l-25.606,15.364     c-9.594,5.748-20.57,8.787-31.747,8.787H22.25v138.996c0,5.865-4.76,10.625-10.625,10.625S1,197.031,1,191.166V41.545     C1,35.68,5.76,30.92,11.625,30.92h105.549c7.331,0,14.524-1.987,20.814-5.759l25.606-15.364C173.178,4.039,184.154,1,195.342,1     H330.81c20.626,0,35.45,20.171,29.113,39.897h10.784c20.626,0,35.45,20.172,29.113,39.897h0.807     c16.862,0,30.579,13.717,30.579,30.579S417.489,141.941,400.628,141.941z"/><path style="fill:#DC5461;" d="M500.375,310.209c-5.868,0-10.625,4.757-10.625,10.625v138.992h-94.919     c-11.183,0-22.161,3.041-31.748,8.794l-25.608,15.364c-6.286,3.773-13.483,5.766-20.814,5.766H181.191     c-5.141,0-9.324-4.182-9.324-9.324c0-5.141,4.182-9.324,9.324-9.324h39.898c5.868,0,10.625-4.757,10.625-10.625     c0-5.868-4.757-10.625-10.625-10.625c-21.414,0-66.815,0-79.795,0c-5.141,0-9.324-4.183-9.324-9.324     c0-5.141,4.183-9.325,9.324-9.325h79.795c5.868,0,10.625-4.758,10.625-10.625c0-5.868-4.757-10.625-10.625-10.625     c-8.408,0-92.49,0-109.719,0c-5.141,0-9.324-4.183-9.324-9.324s4.183-9.324,9.324-9.324c10.181,0,95.918,0,109.719,0     c5.868,0,10.625-4.758,10.625-10.625c0-5.868-4.757-10.625-10.625-10.625h-79.795c-5.141,0-9.324-4.183-9.324-9.324     s4.183-9.324,9.324-9.324h99.744c5.867,0,10.625-4.757,10.625-10.625c0-5.868-4.758-10.625-10.625-10.625h-99.744     c-20.636,0-35.446,20.174-29.115,39.898h-0.808c-16.859,0-30.574,13.715-30.574,30.574s13.715,30.574,30.574,30.574h0.809     c-6.334,19.728,8.482,39.899,29.115,39.899h10.783C145.744,490.83,160.559,511,181.191,511H316.66     c11.182,0,22.16-3.041,31.747-8.794l25.608-15.364c6.286-3.773,13.484-5.766,20.815-5.766h105.544     c5.868,0,10.625-4.757,10.625-10.625V320.834C511,314.967,506.243,310.209,500.375,310.209z"/><path style="fill:#283954;" d="M511,267.315v63.495c0,20.69-20.191,35.444-39.897,29.113v10.784     c0,20.626-20.172,35.45-39.897,29.113v0.807c0,16.862-13.717,30.579-30.579,30.579s-30.568-13.717-30.568-30.579v-0.807     c-19.681,6.324-39.897-8.436-39.897-29.113v-69.169h-98.451v28.624h-21.25v-98.451h-28.624v9.329     c0,5.865-4.749,10.625-10.625,10.625c-5.865,0-10.625-4.76-10.625-10.625v-99.747c0-5.143-4.176-9.318-9.318-9.318     c-5.142,0-9.329,4.176-9.329,9.318v79.794c0,5.876-4.749,10.625-10.625,10.625c-5.865,0-10.625-4.749-10.625-10.625V111.372     c0-5.142-4.176-9.329-9.318-9.329c-5.142,0-9.329,4.186-9.329,9.329v109.714c0,5.876-4.76,10.625-10.625,10.625     c-5.865,0-10.625-4.749-10.625-10.625v-79.794c0-5.143-4.176-9.318-9.318-9.318s-9.329,4.176-9.329,9.318v79.794     c0,5.876-4.76,10.625-10.625,10.625c-5.871,0-10.625-4.752-10.625-10.625v-39.897c0-5.143-4.176-9.318-9.318-9.318     c-2.497,0-4.834,0.967-6.598,2.73c-1.764,1.764-2.731,4.101-2.731,6.588v68.521c0,5.865-4.76,10.625-10.625,10.625     S1,255.575,1,249.71v-68.521c0-16.771,13.563-30.568,30.579-30.568c3.251,0,6.375,0.51,9.318,1.455v-10.784     c0-20.626,20.172-35.45,39.897-29.112v-0.808c0-16.862,13.717-30.579,30.579-30.579s30.568,13.717,30.568,30.579v0.808     c19.681-6.324,39.897,8.435,39.897,29.112v69.169h39.249c5.876,0,10.625,4.76,10.625,10.625v59.202h48.577v-48.577h10.625     c5.865,0,10.625-4.749,10.625-10.625v59.202h28.624v-9.329c0-5.865,4.749-10.625,10.625-10.625     c5.865,0,10.625,4.76,10.625,10.625v99.747c0,5.143,4.176,9.318,9.318,9.318c5.142,0,9.329-4.176,9.329-9.318v-79.794     c0-5.876,4.75-10.625,10.625-10.625c5.865,0,10.625,4.749,10.625,10.625v109.714c0,5.142,4.176,9.329,9.318,9.329     c5.142,0,9.329-4.186,9.329-9.329V290.914c0-5.876,4.76-10.625,10.625-10.625s10.625,4.749,10.625,10.625v79.794     c0,5.143,4.176,9.318,9.318,9.318c5.143,0,9.329-4.176,9.329-9.318v-79.794c0-5.876,4.76-10.625,10.625-10.625     c5.87,0,10.625,4.752,10.625,10.625v39.897c0,5.143,4.176,9.318,9.318,9.318c5.161,0,9.329-4.172,9.329-9.318v-63.495     c0-5.865,4.76-10.625,10.625-10.625S511,261.451,511,267.315z"/></g></g></g><g id="Layer_1"/></svg>