<?xml version="1.0" ?><svg xmlns="http://www.w3.org/2000/svg" xmlns:xlink="http://www.w3.org/1999/xlink" version="1.1" viewBox="0 0 512 512" style="enable-background:new 0 0 512 512;" xml:space="preserve"><g id="_x34_4_x2C__Love_x2C__kindenss_x2C__location_x2C__date_x2C__romance_x2C__place"><g><g><path style="fill:#DC5461;" d="M255.996,50.873c-63.609,0-115.358,51.75-115.358,115.359c0,63.61,51.75,115.36,115.358,115.36     c63.609,0,115.359-51.75,115.359-115.36C371.355,102.623,319.605,50.873,255.996,50.873z M255.996,260.341     c-51.891,0-94.108-42.217-94.108-94.109c0-51.891,42.217-94.108,94.108-94.108c51.891,0,94.108,42.217,94.108,94.108     C350.104,218.123,307.887,260.341,255.996,260.341z"/><path style="fill:#DC5461;" d="M309.037,122.987c-14.397-14.396-36.637-16.278-53.05-5.696     c-16.446-10.581-38.655-8.685-53.036,5.696c-16.592,16.587-16.608,43.481-0.001,60.086c47.107,47.111,45.321,45.32,45.535,45.539     c0,0,0.022,0.022,0.055,0.052c2.812,2.768,6.924,3.657,10.294,2.642c1.725-0.475,3.354-1.387,4.705-2.734l-0.018-0.018     c0.001-0.002,0.002-0.002,0.002-0.002l0.02,0.017c1.781-1.8-8.402,8.401,45.494-45.494h-0.001     C325.641,166.473,325.645,139.595,309.037,122.987z M294.011,168.047h-0.001c-3.534,3.534-34.288,34.289-38.017,38.018     l-38.016-38.018c-4.007-4.006-6.214-9.339-6.216-15.013c-0.002-11.812,9.559-21.233,21.237-21.233     c9.862,0,15.211,6.495,15.482,6.675c4.127,4.127,10.81,4.152,14.967,0.058l0.529-0.521c8.281-8.28,21.753-8.279,30.035,0     c4.011,4.011,6.221,9.345,6.221,15.016C300.232,158.702,298.023,164.036,294.011,168.047z"/><path style="fill:#283954;" d="M373.49,390.408c-12.659-8.945-29.07-16.239-48.046-21.442     c9.728-13.468,19.801-27.99,29.563-43.006c3.199-4.92,1.803-11.501-3.116-14.7c-4.923-3.201-11.502-1.803-14.7,3.116     c-31.279,48.109-65.823,91.098-81.147,109.594c-45.517-55.528-143.777-186.42-144.027-257.777     c-0.123-34.005,11.932-67.023,33.942-92.975c3.796-4.475,3.246-11.18-1.23-14.976c-4.477-3.797-11.181-3.243-14.976,1.23     c-25.282,29.809-39.128,67.737-38.987,106.797c0.198,56.642,52.04,141.005,96.16,202.587     c-19.067,5.195-35.561,12.492-48.286,21.45c-18.272,12.864-27.932,28.508-27.932,45.242c0,19.317,13.24,37.483,37.281,51.152     c5.08,2.887,11.574,1.14,14.488-3.985c2.9-5.101,1.116-11.588-3.985-14.488c-17.11-9.729-26.534-21.334-26.534-32.678     c0-19.447,27.84-38.806,68.488-48.176c25.117,33.765,45.219,57.424,47.472,60.062c4.278,5.004,11.925,4.891,16.113,0.048     c0.318-0.367,21.369-24.783,47.805-60.033c40.465,9.378,68.188,28.711,68.188,48.1c0,12.823-12.183,26.044-33.424,36.271     c-42.053,20.248-104.499,22.665-151.174,10.696c-5.691-1.462-11.474,1.969-12.932,7.652c-1.458,5.684,1.968,11.474,7.653,12.932     c51.279,13.15,118.867,10.402,165.672-12.133c29.311-14.114,45.455-33.795,45.455-55.418     C401.276,418.863,391.668,403.254,373.49,390.408z"/><path style="fill:#283954;" d="M175.367,46.869c23.871-16.106,51.753-24.618,80.632-24.618     c78.551,0,143.142,64.64,143.982,144.095c0.288,26.843-13.465,64.636-40.876,112.329c-2.924,5.089-1.17,11.583,3.917,14.507     c5.089,2.923,11.582,1.172,14.507-3.917c29.327-51.027,44.03-92.459,43.7-123.145C420.266,75.052,347.433,1,255.998,1     c-33.13,0-65.121,9.769-92.517,28.252c-4.864,3.282-6.148,9.886-2.866,14.751C163.899,48.867,170.503,50.149,175.367,46.869z"/></g></g></g><g id="Layer_1"/></svg>